<svg
  width="167"
  height="107"
  viewBox="0 0 167 107"
  fill="none"
  xmlns="http://www.w3.org/2000/svg"
>
<circle
  cx="122"
  cy="62"
  r="42.5"
  fill="white"
  stroke="#363636"
  stroke-width="5"
/>
<path
  d="M139.06 80.75H104.685C104.271 80.75 103.873 80.9146 103.58 81.2076C103.287 81.5007 103.123 81.8981 103.123 82.3125V85.4375C103.123 85.8519 103.287 86.2493 103.58 86.5424C103.873 86.8354 104.271 87 104.685 87H139.06C139.474 87 139.872 86.8354 140.165 86.5424C140.458 86.2493 140.623 85.8519 140.623 85.4375V82.3125C140.623 81.8981 140.458 81.5007 140.165 81.2076C139.872 80.9146 139.474 80.75 139.06 80.75ZM140.623 52.625H124.998V47.9375H128.904C129.111 47.9375 129.31 47.8552 129.456 47.7087C129.603 47.5622 129.685 47.3635 129.685 47.1562V42.4688C129.685 42.2615 129.603 42.0628 129.456 41.9163C129.31 41.7698 129.111 41.6875 128.904 41.6875H124.998V37.7812C124.998 37.574 124.915 37.3753 124.769 37.2288C124.622 37.0823 124.424 37 124.216 37H119.529C119.322 37 119.123 37.0823 118.976 37.2288C118.83 37.3753 118.748 37.574 118.748 37.7812V41.6875H114.841C114.634 41.6875 114.435 41.7698 114.289 41.9163C114.142 42.0628 114.06 42.2615 114.06 42.4688V47.1562C114.06 47.3635 114.142 47.5622 114.289 47.7087C114.435 47.8552 114.634 47.9375 114.841 47.9375H118.748V52.625H103.123C102.633 52.6254 102.15 52.741 101.713 52.9624C101.276 53.1838 100.897 53.5049 100.607 53.8997C100.317 54.2946 100.123 54.7521 100.043 55.2353C99.962 55.7185 99.996 56.214 100.142 56.6816L107.279 77.625H136.466L143.603 56.6816C143.749 56.214 143.783 55.7185 143.702 55.2353C143.622 54.7521 143.429 54.2946 143.139 53.8997C142.848 53.5049 142.47 53.1838 142.033 52.9624C141.595 52.741 141.113 52.6254 140.623 52.625V52.625Z"
  fill="#363636"
/>
<circle
  cx="50"
  cy="50"
  r="47.5"
  fill="#363636"
  stroke="white"
  stroke-width="5"
/>
<path
  d="M67.0601 68.75H32.6851C32.2707 68.75 31.8732 68.9146 31.5802 69.2076C31.2872 69.5007 31.1226 69.8981 31.1226 70.3125V73.4375C31.1226 73.8519 31.2872 74.2493 31.5802 74.5424C31.8732 74.8354 32.2707 75 32.6851 75H67.0601C67.4745 75 67.8719 74.8354 68.1649 74.5424C68.458 74.2493 68.6226 73.8519 68.6226 73.4375V70.3125C68.6226 69.8981 68.458 69.5007 68.1649 69.2076C67.8719 68.9146 67.4745 68.75 67.0601 68.75ZM68.6226 40.625H52.9976V35.9375H56.9038C57.111 35.9375 57.3097 35.8552 57.4563 35.7087C57.6028 35.5622 57.6851 35.3635 57.6851 35.1562V30.4688C57.6851 30.2615 57.6028 30.0628 57.4563 29.9163C57.3097 29.7698 57.111 29.6875 56.9038 29.6875H52.9976V25.7812C52.9976 25.574 52.9153 25.3753 52.7688 25.2288C52.6222 25.0823 52.4235 25 52.2163 25H47.5288C47.3216 25 47.1229 25.0823 46.9764 25.2288C46.8299 25.3753 46.7476 25.574 46.7476 25.7812V29.6875H42.8413C42.6341 29.6875 42.4354 29.7698 42.2889 29.9163C42.1424 30.0628 42.0601 30.2615 42.0601 30.4688V35.1562C42.0601 35.3635 42.1424 35.5622 42.2889 35.7087C42.4354 35.8552 42.6341 35.9375 42.8413 35.9375H46.7476V40.625H31.1226C30.6326 40.6254 30.1497 40.741 29.7126 40.9624C29.2756 41.1838 28.8967 41.5049 28.6066 41.8997C28.3166 42.2946 28.1234 42.7521 28.0427 43.2353C27.962 43.7185 27.996 44.214 28.1421 44.6816L35.2788 65.625H64.4663L71.603 44.6816C71.7491 44.214 71.7832 43.7185 71.7025 43.2353C71.6218 42.7521 71.4286 42.2946 71.1385 41.8997C70.8484 41.5049 70.4696 41.1838 70.0325 40.9624C69.5955 40.741 69.1125 40.6254 68.6226 40.625V40.625Z"
  fill="white"
/>
</svg>