<svg
  width="80"
  height="80"
  viewBox="0 0 80 80"
  fill="none"
  xmlns="http://www.w3.org/2000/svg"
>
<path
  fill-rule="evenodd"
  clip-rule="evenodd"
  d="M18.8002 61.8024C24.2245 60.2504 34.977 62.4905 40.4013 58.6023C45.8256 62.4905 56.578 60.2504 62.0023 61.8024C62.0023 61.8024 64.6424 62.6664 66.8026 65.0026C65.7145 66.5546 64.1625 66.5867 62.0023 65.8027C56.578 64.2505 45.8256 66.5387 40.4013 64.2026C34.977 66.5387 24.2245 64.2505 18.8002 65.8027C16.6401 66.5867 15.0881 66.5546 14 65.0026C16.1601 62.6664 18.8002 61.8024 18.8002 61.8024Z"
  fill="black"
  stroke="black"
  stroke-width="2.5"
  stroke-linejoin="round"
/>
<path
  fill-rule="evenodd"
  clip-rule="evenodd"
  d="M28.4007 55.4021C32.4009 59.4023 48.4017 59.4023 52.4019 55.4021C53.2019 53.002 52.4019 52.2019 52.4019 52.2019C52.4019 48.2018 48.4017 45.8016 48.4017 45.8016C57.2022 43.4015 58.0022 27.4008 40.4013 21.0004C22.8004 27.4008 23.6004 43.4015 32.4009 45.8016C32.4009 45.8016 28.4007 48.2018 28.4007 52.2019C28.4007 52.2019 27.6007 53.002 28.4007 55.4021Z"
  fill="black"
  stroke="black"
  stroke-width="2.5"
  stroke-linejoin="round"
/>
<path
  fill-rule="evenodd"
  clip-rule="evenodd"
  d="M44.4014 17.0002C44.4014 18.0611 43.98 19.0786 43.2299 19.8288C42.4797 20.579 41.4622 21.0004 40.4013 21.0004C39.3404 21.0004 38.3229 20.579 37.5727 19.8288C36.8225 19.0786 36.4011 18.0611 36.4011 17.0002C36.4011 15.9392 36.8225 14.9218 37.5727 14.1717C38.3229 13.4215 39.3404 13 40.4013 13C41.4622 13 42.4797 13.4215 43.2299 14.1717C43.98 14.9218 44.4014 15.9392 44.4014 17.0002Z"
  fill="black"
  stroke="black"
  stroke-width="2.5"
  stroke-linejoin="round"
/>
<path
  d="M36.4011 33.001H44.4014H36.4011ZM32.4009 45.8016H48.4017H32.4009ZM28.4007 52.2019H52.4018H28.4007ZM40.4013 29.0009V37.0013V29.0009Z"
  stroke="white"
  stroke-width="2.5"
  stroke-linecap="round"
/>
</svg>