<svg
  width="80"
  height="80"
  viewBox="0 0 80 80"
  fill="none"
  xmlns="http://www.w3.org/2000/svg"
>
<path
  fill-rule="evenodd"
  clip-rule="evenodd"
  d="M39.601 18.8002C56.4017 20.4003 66.002 31.6007 65.202 65.2019H28.4006C28.4006 50.8014 44.4011 54.8016 41.2011 31.6007"
  fill="black"
/>
<path
  d="M39.601 18.8002C56.4017 20.4003 66.002 31.6007 65.202 65.2019H28.4006C28.4006 50.8014 44.4011 54.8016 41.2011 31.6007"
  stroke="black"
  stroke-width="2.5"
  stroke-linecap="round"
  stroke-linejoin="round"
/>
<path
  fill-rule="evenodd"
  clip-rule="evenodd"
  d="M42.8011 31.6007C43.4091 36.2569 33.9208 43.3932 30.0006 46.0013C25.2004 49.2014 25.4884 52.9455 22.0003 52.4015C20.333 50.8975 24.2564 47.5374 22.0003 47.6014C20.4002 47.6014 22.3043 49.5694 20.4002 50.8015C18.8002 50.8015 13.9951 52.4015 14 44.4012C14 41.2011 23.6003 25.2005 23.6003 25.2005C23.6003 25.2005 26.6244 22.1603 26.8005 19.6003C25.6324 18.0097 26.0004 16.4001 26.0004 14.8C27.6005 13.2 30.8006 18.8002 30.8006 18.8002H34.0008C34.0008 18.8002 35.2488 15.6129 38.0009 14C39.601 14 39.601 18.8002 39.601 18.8002"
  fill="black"
/>
<path
  d="M42.8011 31.6007C43.4091 36.2569 33.9208 43.3932 30.0006 46.0013C25.2004 49.2014 25.4884 52.9455 22.0003 52.4015C20.333 50.8975 24.2564 47.5374 22.0003 47.6014C20.4002 47.6014 22.3043 49.5694 20.4002 50.8015C18.8002 50.8015 13.9951 52.4015 14 44.4012C14 41.2011 23.6003 25.2005 23.6003 25.2005C23.6003 25.2005 26.6244 22.1603 26.8005 19.6003C25.6324 18.0097 26.0004 16.4001 26.0004 14.8C27.6005 13.2 30.8006 18.8002 30.8006 18.8002H34.0008C34.0008 18.8002 35.2488 15.6129 38.0009 14C39.601 14 39.601 18.8002 39.601 18.8002"
  stroke="black"
  stroke-width="2.5"
  stroke-linecap="round"
  stroke-linejoin="round"
/>
<path
  fill-rule="evenodd"
  clip-rule="evenodd"
  d="M19.6002 43.6012C19.6002 43.8134 19.5159 44.0169 19.3658 44.1669C19.2158 44.317 19.0124 44.4012 18.8002 44.4012C18.588 44.4012 18.3845 44.317 18.2345 44.1669C18.0845 44.0169 18.0001 43.8134 18.0001 43.6012C18.0001 43.389 18.0845 43.1856 18.2345 43.0355C18.3845 42.8855 18.588 42.8011 18.8002 42.8011C19.0124 42.8011 19.2158 42.8855 19.3658 43.0355C19.5159 43.1856 19.6002 43.389 19.6002 43.6012Z"
  fill="white"
  stroke="white"
  stroke-width="2.5"
  stroke-linecap="round"
  stroke-linejoin="round"
/>
<path
  fill-rule="evenodd"
  clip-rule="evenodd"
  d="M28.2934 28.0004C27.975 28.5516 27.5968 29.0382 27.2419 29.3529C26.8869 29.6677 26.5842 29.785 26.4004 29.6788C26.2167 29.5727 26.167 29.252 26.2621 28.7873C26.3571 28.3224 26.5894 27.7516 26.9077 27.2003C27.2259 26.6491 27.6042 26.1626 27.9592 25.8478C28.3142 25.533 28.6168 25.4158 28.8005 25.5219C28.9843 25.628 29.0341 25.9487 28.939 26.4135C28.8438 26.8783 28.6116 27.4492 28.2934 28.0004Z"
  fill="white"
  stroke="white"
  stroke-width="2.5"
  stroke-linecap="round"
  stroke-linejoin="round"
/>
<path
  fill-rule="evenodd"
  clip-rule="evenodd"
  d="M43.6811 19.4402L42.9611 21.7602L43.7611 22.0002C48.8013 23.6003 52.8015 25.9844 56.4017 32.8007C60.0018 39.6169 61.6019 49.2973 60.8018 65.2019L60.7218 66.002H64.322L64.402 65.2019C65.202 49.1053 62.9939 38.2409 59.2018 31.0566C55.4096 23.8723 49.9374 20.4322 44.4972 19.6001L43.6811 19.4402Z"
  fill="white"
/>
</svg>