<svg
  width="80"
  height="80"
  viewBox="0 0 80 80"
  fill="none"
  xmlns="http://www.w3.org/2000/svg"
>
<path
  d="M17.9997 43.9987C31.5991 41.5987 51.5983 41.5987 61.1979 43.9987L65.1977 23.9995L53.1982 42.3987L52.7183 19.8396L44.3986 41.5987L39.5988 18.3997L34.799 41.5987L26.4793 19.8396L25.9994 42.3987L13.9999 23.9995L17.9997 43.9987Z"
  fill="black"
  stroke="black"
  stroke-width="2.5"
  stroke-linejoin="round"
/>
<path
  d="M17.9997 43.9988C17.9997 47.1987 20.3996 47.1987 21.9995 50.3985C23.5994 52.7985 23.5994 51.9985 22.7995 55.9983C20.3996 57.5982 21.1996 59.9982 21.1996 59.9982C18.7997 62.3981 21.1996 63.998 21.1996 63.998C31.5991 65.5979 47.5985 65.5979 57.998 63.998C57.998 63.998 60.398 62.3981 57.998 59.9982C57.998 59.9982 58.798 57.5982 56.3982 55.9983C55.5982 51.9985 55.5982 52.7985 57.1981 50.3985C58.798 47.1987 61.1979 47.1987 61.1979 43.9988C47.5985 41.5989 31.5991 41.5989 17.9997 43.9988Z"
  fill="black"
  stroke="black"
  stroke-width="2.5"
  stroke-linecap="round"
  stroke-linejoin="round"
/>
<path
  d="M21.9995 50.3983C27.5993 48.7984 51.5983 48.7984 57.198 50.3983H21.9995Z"
  fill="black"
/>
<path
  d="M21.9995 50.3983C27.5993 48.7984 51.5983 48.7984 57.198 50.3983"
  stroke="black"
  stroke-width="2.5"
  stroke-linecap="round"
  stroke-linejoin="round"
/>
<path
  d="M22.7994 55.9982C32.3991 54.3984 46.7985 54.3984 56.3981 55.9982H22.7994Z"
  fill="black"
/>
<path
  d="M22.7994 55.9982C32.3991 54.3984 46.7985 54.3984 56.3981 55.9982"
  stroke="black"
  stroke-width="2.5"
  stroke-linecap="round"
  stroke-linejoin="round"
/>
<path
  d="M13.1999 24.7994C14.9671 24.7994 16.3997 23.3668 16.3997 21.5996C16.3997 19.8323 14.9671 18.3997 13.1999 18.3997C11.4326 18.3997 10 19.8323 10 21.5996C10 23.3668 11.4326 24.7994 13.1999 24.7994Z"
  fill="black"
  stroke="black"
  stroke-width="2.5"
  stroke-linecap="round"
  stroke-linejoin="round"
/>
<path
  d="M25.9993 19.9997C27.7666 19.9997 29.1992 18.5671 29.1992 16.7998C29.1992 15.0326 27.7666 13.6 25.9993 13.6C24.2321 13.6 22.7994 15.0326 22.7994 16.7998C22.7994 18.5671 24.2321 19.9997 25.9993 19.9997Z"
  fill="black"
  stroke="black"
  stroke-width="2.5"
  stroke-linecap="round"
  stroke-linejoin="round"
/>
<path
  d="M39.5988 18.3998C41.366 18.3998 42.7987 16.9672 42.7987 15.1999C42.7987 13.4327 41.366 12 39.5988 12C37.8315 12 36.3989 13.4327 36.3989 15.1999C36.3989 16.9672 37.8315 18.3998 39.5988 18.3998Z"
  fill="black"
  stroke="black"
  stroke-width="2.5"
  stroke-linecap="round"
  stroke-linejoin="round"
/>
<path
  d="M53.1982 19.9997C54.9655 19.9997 56.3981 18.5671 56.3981 16.7998C56.3981 15.0326 54.9655 13.6 53.1982 13.6C51.431 13.6 49.9984 15.0326 49.9984 16.7998C49.9984 18.5671 51.431 19.9997 53.1982 19.9997Z"
  fill="black"
  stroke="black"
  stroke-width="2.5"
  stroke-linecap="round"
  stroke-linejoin="round"
/>
<path
  d="M65.9977 24.7994C67.765 24.7994 69.1976 23.3668 69.1976 21.5996C69.1976 19.8323 67.765 18.3997 65.9977 18.3997C64.2305 18.3997 62.7979 19.8323 62.7979 21.5996C62.7979 23.3668 64.2305 24.7994 65.9977 24.7994Z"
  fill="black"
  stroke="black"
  stroke-width="2.5"
  stroke-linecap="round"
  stroke-linejoin="round"
/>
<path
  d="M21.1996 63.9979C33.1155 68.1433 46.0821 68.1433 57.998 63.9979"
  stroke="black"
  stroke-width="2.5"
  stroke-linejoin="round"
/>
<path
  d="M21.1995 48.7986C33.1155 44.6532 46.0821 44.6532 57.998 48.7986"
  stroke="white"
  stroke-width="2.5"
  stroke-linecap="round"
  stroke-linejoin="round"
/>
<path
  d="M23.5994 52.7982H55.5982"
  stroke="white"
  stroke-width="2.5"
  stroke-linecap="round"
  stroke-linejoin="round"
/>
<path
  d="M21.9995 57.5983C33.4274 61.3816 45.7702 61.3816 57.198 57.5983"
  stroke="white"
  stroke-width="2.5"
  stroke-linecap="round"
  stroke-linejoin="round"
/>
<path
  d="M20.3996 62.3979C32.799 66.9235 46.3986 66.9235 58.798 62.3979"
  stroke="white"
  stroke-width="2.5"
  stroke-linecap="round"
  stroke-linejoin="round"
/>
</svg>