<svg
  width="80"
  height="80"
  viewBox="0 0 80 80"
  fill="none"
  xmlns="http://www.w3.org/2000/svg"
>
<path
  fill-rule="evenodd"
  clip-rule="evenodd"
  d="M18 63.9971H61.1973V59.1974H18V63.9971Z"
  fill="black"
  stroke="black"
  stroke-width="2.5"
  stroke-linejoin="round"
/>
<path
  fill-rule="evenodd"
  clip-rule="evenodd"
  d="M23.5996 52.7977L25.9995 48.7979H53.1978L55.5977 52.7977H23.5996Z"
  fill="black"
  stroke="black"
  stroke-width="2.5"
  stroke-linejoin="round"
/>
<path
  fill-rule="evenodd"
  clip-rule="evenodd"
  d="M22.7997 59.1973V52.7977H56.3977V59.1973H22.7997Z"
  fill="black"
  stroke="black"
  stroke-width="2.5"
  stroke-linejoin="round"
/>
<path
  fill-rule="evenodd"
  clip-rule="evenodd"
  d="M25.9995 48.7978V27.9991H53.1978V48.7978H25.9995Z"
  fill="black"
  stroke="black"
  stroke-width="2.5"
/>
<path
  fill-rule="evenodd"
  clip-rule="evenodd"
  d="M25.9995 27.9993L21.1998 23.9995H57.9975L53.1978 27.9993H25.9995Z"
  fill="black"
  stroke="black"
  stroke-width="2.5"
  stroke-linejoin="round"
/>
<path
  fill-rule="evenodd"
  clip-rule="evenodd"
  d="M21.1998 23.9995V16H27.5994V19.1998H35.599V16H43.5984V19.1998H51.5979V16H57.9975V23.9995H21.1998Z"
  fill="black"
  stroke="black"
  stroke-width="2.5"
  stroke-linejoin="round"
/>
<path
  d="M22.7997 58.3973H56.3977"
  stroke="white"
  stroke-width="2.5"
  stroke-linecap="round"
/>
<path
  d="M24.3996 51.9978H54.7977"
  stroke="white"
  stroke-width="2.5"
  stroke-linecap="round"
/>
<path
  d="M25.9995 48.7979H53.1978"
  stroke="white"
  stroke-width="2.5"
  stroke-linecap="round"
/>
<path
  d="M25.9995 27.9991H53.1978"
  stroke="white"
  stroke-width="2.5"
  stroke-linecap="round"
/>
<path
  d="M21.1998 23.9995H57.9975"
  stroke="white"
  stroke-width="2.5"
  stroke-linecap="round"
/>
</svg>