<svg
  width="80"
  height="80"
  viewBox="0 0 80 80"
  fill="none"
  xmlns="http://www.w3.org/2000/svg"
>
<path
  fill-rule="evenodd"
  clip-rule="evenodd"
  d="M39.6005 18.8001C56.4009 20.4002 66.001 31.6004 65.201 65.201H28.4003C28.4003 50.8007 44.4006 54.8009 41.2006 31.6004"
  fill="white"
/>
<path
  d="M39.6005 18.8001C56.4009 20.4002 66.001 31.6004 65.201 65.201H28.4003C28.4003 50.8007 44.4006 54.8009 41.2006 31.6004"
  stroke="black"
  stroke-width="2.5"
  stroke-linecap="round"
  stroke-linejoin="round"
/>
<path
  fill-rule="evenodd"
  clip-rule="evenodd"
  d="M42.8006 31.6004C43.4086 36.2565 33.9204 43.3926 30.0003 46.0007C25.2002 49.2007 25.4882 52.9448 22.0001 52.4008C20.3329 50.8968 24.2562 47.5368 22.0001 47.6008C20.4001 47.6008 22.3041 49.5687 20.4001 50.8008C18.8001 50.8008 13.9951 52.4008 14 44.4007C14 41.2006 23.6001 25.2003 23.6001 25.2003C23.6001 25.2003 26.6242 22.1602 26.8003 19.6002C25.6322 18.0097 26.0002 16.4001 26.0002 14.8C27.6003 13.2 30.8003 18.8002 30.8003 18.8002H34.0004C34.0004 18.8002 35.2484 15.6128 38.0004 14C39.6005 14 39.6005 18.8002 39.6005 18.8002"
  fill="white"
/>
<path
  d="M42.8006 31.6004C43.4086 36.2565 33.9204 43.3926 30.0003 46.0007C25.2002 49.2007 25.4882 52.9448 22.0001 52.4008C20.3329 50.8968 24.2562 47.5368 22.0001 47.6008C20.4001 47.6008 22.3041 49.5687 20.4001 50.8008C18.8001 50.8008 13.9951 52.4008 14 44.4007C14 41.2006 23.6001 25.2003 23.6001 25.2003C23.6001 25.2003 26.6242 22.1602 26.8003 19.6002C25.6322 18.0097 26.0002 16.4001 26.0002 14.8C27.6003 13.2 30.8003 18.8002 30.8003 18.8002H34.0004C34.0004 18.8002 35.2484 15.6128 38.0004 14C39.6005 14 39.6005 18.8002 39.6005 18.8002"
  stroke="black"
  stroke-width="2.5"
  stroke-linecap="round"
  stroke-linejoin="round"
/>
<path
  fill-rule="evenodd"
  clip-rule="evenodd"
  d="M19.6001 43.6006C19.6001 43.8128 19.5158 44.0163 19.3657 44.1664C19.2157 44.3164 19.0122 44.4006 18.8001 44.4006C18.5878 44.4006 18.3844 44.3164 18.2343 44.1664C18.0843 44.0163 18 43.8128 18 43.6006C18 43.3885 18.0843 43.185 18.2343 43.035C18.3844 42.8849 18.5878 42.8006 18.8001 42.8006C19.0122 42.8006 19.2157 42.8849 19.3657 43.035C19.5158 43.185 19.6001 43.3885 19.6001 43.6006Z"
  fill="black"
  stroke="black"
  stroke-width="2.5"
  stroke-linecap="round"
  stroke-linejoin="round"
/>
<path
  fill-rule="evenodd"
  clip-rule="evenodd"
  d="M28.293 28.0002C27.9748 28.5515 27.5966 29.038 27.2416 29.3527C26.8866 29.6675 26.584 29.7848 26.4002 29.6786C26.2165 29.5725 26.1667 29.2519 26.2618 28.7871C26.3569 28.3222 26.5892 27.7514 26.9074 27.2002C27.2257 26.649 27.604 26.1624 27.9589 25.8477C28.3139 25.5329 28.6165 25.4157 28.8003 25.5218C28.9841 25.6278 29.0338 25.9486 28.9387 26.4134C28.8436 26.8781 28.6114 27.449 28.293 28.0002Z"
  fill="black"
  stroke="black"
  stroke-width="2.5"
  stroke-linecap="round"
  stroke-linejoin="round"
/>
</svg>