<svg
  width="80"
  height="80"
  viewBox="0 0 80 80"
  fill="none"
  xmlns="http://www.w3.org/2000/svg"
>
<path
  d="M40.3992 16C36.8633 16 33.9995 18.8639 33.9995 22.3997C33.9995 23.8237 34.4634 25.1356 35.2475 26.2076C32.1276 27.9995 29.9996 31.3434 29.9996 35.1992C29.9996 38.4471 31.5036 41.343 33.8555 43.2469C29.0557 44.9428 22 52.1265 22 64.798H58.7984C58.7984 52.1265 51.7427 44.9428 46.9429 43.2469C49.2948 41.343 50.7988 38.4471 50.7988 35.1992C50.7988 31.3434 48.6709 27.9995 45.551 26.2076C46.335 25.1356 46.7989 23.8237 46.7989 22.3997C46.7989 18.8639 43.9351 16 40.3992 16Z"
  fill="white"
  stroke="black"
  stroke-width="2.5"
  stroke-linecap="round"
/>
</svg>