<svg
  width="80"
  height="80"
  viewBox="0 0 80 80"
  fill="none"
  xmlns="http://www.w3.org/2000/svg"
>
<path
  d="M17.9998 44.9994C31.5995 42.5994 51.5991 42.5994 61.1989 44.9994L65.1988 24.9998L53.1991 43.3994L52.7191 20.8398L44.3992 42.5994L39.5994 19.3998L34.7995 42.5994L26.4796 20.8398L25.9997 43.3994L14 24.9998L17.9998 44.9994Z"
  fill="white"
  stroke="black"
  stroke-width="2.5"
  stroke-linejoin="round"
/>
<path
  d="M17.9998 44.9994C17.9998 48.1994 20.3998 48.1994 21.9997 51.3993C23.5997 53.7993 23.5997 52.9993 22.7997 56.9992C20.3998 58.5992 21.1998 60.9991 21.1998 60.9991C18.7998 63.3991 21.1998 64.999 21.1998 64.999C31.5995 66.599 47.5992 66.599 57.999 64.999C57.999 64.999 60.3989 63.3991 57.999 60.9991C57.999 60.9991 58.7989 58.5992 56.3991 56.9992C55.5991 52.9993 55.5991 53.7993 57.199 51.3993C58.7989 48.1994 61.1989 48.1994 61.1989 44.9994C47.5992 42.5995 31.5995 42.5995 17.9998 44.9994Z"
  fill="white"
  stroke="black"
  stroke-width="2.5"
  stroke-linejoin="round"
/>
<path
  d="M21.9998 51.3991C27.5997 49.7992 51.5991 49.7992 57.1991 51.3991"
  stroke="black"
  stroke-width="2.5"
  stroke-linejoin="round"
/>
<path
  d="M22.7997 56.9992C32.3995 55.3993 46.7992 55.3993 56.3991 56.9992"
  stroke="black"
  stroke-width="2.5"
  stroke-linejoin="round"
/>
<path
  d="M13.2 25.7997C14.9672 25.7997 16.3998 24.3671 16.3998 22.5998C16.3998 20.8325 14.9672 19.3998 13.2 19.3998C11.4327 19.3998 10 20.8325 10 22.5998C10 24.3671 11.4327 25.7997 13.2 25.7997Z"
  fill="white"
  stroke="black"
  stroke-width="2.5"
  stroke-linejoin="round"
/>
<path
  d="M25.9997 21C27.767 21 29.1996 19.5673 29.1996 17.8C29.1996 16.0328 27.767 14.6001 25.9997 14.6001C24.2324 14.6001 22.7997 16.0328 22.7997 17.8C22.7997 19.5673 24.2324 21 25.9997 21Z"
  fill="white"
  stroke="black"
  stroke-width="2.5"
  stroke-linejoin="round"
/>
<path
  d="M39.5994 19.3999C41.3667 19.3999 42.7993 17.9673 42.7993 16.2C42.7993 14.4327 41.3667 13 39.5994 13C37.8321 13 36.3994 14.4327 36.3994 16.2C36.3994 17.9673 37.8321 19.3999 39.5994 19.3999Z"
  fill="white"
  stroke="black"
  stroke-width="2.5"
  stroke-linejoin="round"
/>
<path
  d="M53.1991 21C54.9664 21 56.3991 19.5673 56.3991 17.8C56.3991 16.0328 54.9664 14.6001 53.1991 14.6001C51.4318 14.6001 49.9992 16.0328 49.9992 17.8C49.9992 19.5673 51.4318 21 53.1991 21Z"
  fill="white"
  stroke="black"
  stroke-width="2.5"
  stroke-linejoin="round"
/>
<path
  d="M65.9988 25.7997C67.7661 25.7997 69.1988 24.3671 69.1988 22.5998C69.1988 20.8325 67.7661 19.3998 65.9988 19.3998C64.2316 19.3998 62.7989 20.8325 62.7989 22.5998C62.7989 24.3671 64.2316 25.7997 65.9988 25.7997Z"
  fill="white"
  stroke="black"
  stroke-width="2.5"
  stroke-linejoin="round"
/>
</svg>