<svg
  width="104"
  height="104"
  viewBox="0 0 104 104"
  fill="none"
  xmlns="http://www.w3.org/2000/svg"
>
<circle
  cx="52"
  cy="52"
  r="52"
  fill="#EDEDED"
/>
<path
  d="M45.1375 46H42C41.4696 46 40.9609 46.2107 40.5858 46.5858C40.2107 46.9609 40 47.4696 40 48V52C40 52.5304 40.2107 53.0391 40.5858 53.4142C40.9609 53.7893 41.4696 54 42 54H44V54.6862C44 60.1862 43.4825 65.5112 41 70H63C60.5138 65.5112 60 60.1862 60 54.6862V54H62C62.5304 54 63.0391 53.7893 63.4142 53.4142C63.7893 53.0391 64 52.5304 64 52V48C64 47.4696 63.7893 46.9609 63.4142 46.5858C63.0391 46.2107 62.5304 46 62 46H58.8625C62.5362 43.7025 65 39.6525 65 35C65 31.5522 63.6304 28.2456 61.1924 25.8076C58.7544 23.3696 55.4478 22 52 22C48.5522 22 45.2456 23.3696 42.8076 25.8076C40.3696 28.2456 39 31.5522 39 35C39 39.6525 41.4637 43.7025 45.1375 46ZM70 74H34C33.4696 74 32.9609 74.2107 32.5858 74.5858C32.2107 74.9609 32 75.4696 32 76V80C32 80.5304 32.2107 81.0391 32.5858 81.4142C32.9609 81.7893 33.4696 82 34 82H70C70.5304 82 71.0391 81.7893 71.4142 81.4142C71.7893 81.0391 72 80.5304 72 80V76C72 75.4696 71.7893 74.9609 71.4142 74.5858C71.0391 74.2107 70.5304 74 70 74Z"
  fill="#363636"
/>
</svg>